<svg version="1.2" xmlns="http://www.w3.org/2000/svg" viewBox="0 0 1594 1435" width="1594" height="1435">
	<title>gammacom-svg</title>
	<style>
		.s0 { fill: #6800d2 } 
	</style>
	<path id="Layer" fill-rule="evenodd" class="s0" d="m1195.9 30.4c99.3 58.6 133.2 185 74.5 284.3-58.7 99.3-185 133.1-284.3 74.4-99.3-58.6-133.2-185-74.5-284.3 58.7-99.2 185-133.1 284.3-74.4zm-988.3 893.5c-114.8 0-207.6-92.8-207.6-207.6 0-114.8 92.8-207.6 207.6-207.6 114.8 0 207.6 92.8 207.6 207.6 0 114.8-92.8 207.6-207.6 207.6zm194.1-898c101.5-54.2 227.9-18.1 282 83.4 54.2 101.6 18.1 227.9-83.5 282.1-101.5 54.1-227.9 18-282-83.5-54.2-101.5-18.1-227.9 83.5-282zm787.5 1383.1c-101.6 54.1-227.9 18-282.1-83.5-54.2-101.5-18.1-227.9 83.5-282 101.5-54.2 227.9-18.1 282 83.4 56.5 101.6 18.1 225.7-83.4 282.1zm-794.3-4.5c-99.3-58.7-133.1-185-74.5-284.3 58.7-99.3 185-133.1 284.3-74.5 99.3 58.7 133.2 185 74.5 284.3-56.4 99.3-185 133.1-284.3 74.5zm843.9-834.9c36.1-38.3 90.3-60.9 146.7-60.9 115.1 0 207.6 92.5 207.6 207.6 0 115.1-92.5 207.6-207.6 207.6-56.4 0-108.3-22.6-146.7-60.9-103.8-103.8-191.8-103.8-295.6 0-36.1 38.3-90.3 60.9-146.7 60.9-115 0-207.6-92.5-207.6-207.6 0-115.1 92.6-207.6 207.6-207.6 56.4 0 108.3 22.6 146.7 60.9 103.8 103.8 191.8 103.8 295.6 0z"/>
</svg>