<svg version="1.2" xmlns="http://www.w3.org/2000/svg" viewBox="0 0 1582 356" width="1582" height="356">
	<title>gammacom-svg</title>
	<style>
		.s0 { fill: #3F51B5 } 
		.s1 { fill: #fff } 
	</style>
	<path id="Layer" fill-rule="evenodd" class="s0" d="m295.6 8.3c24.5 14.5 32.9 45.7 18.4 70.2-14.5 24.6-45.7 32.9-70.3 18.4-24.5-14.5-32.9-45.7-18.4-70.2 14.5-24.6 45.8-33 70.3-18.4zm-244.3 220.8c-28.4 0-51.3-22.9-51.3-51.3 0-28.4 22.9-51.3 51.3-51.3 28.4 0 51.3 22.9 51.3 51.3 0 28.4-22.9 51.3-51.3 51.3zm48-222c25.1-13.4 56.3-4.4 69.7 20.7 13.4 25.1 4.5 56.3-20.6 69.7-25.1 13.4-56.4 4.5-69.8-20.6-13.3-25.1-4.4-56.4 20.7-69.8zm194.6 342c-25.1 13.4-56.3 4.4-69.7-20.7-13.4-25.1-4.4-56.3 20.7-69.7 25-13.4 56.3-4.5 69.7 20.6 13.9 25.1 4.4 55.8-20.7 69.8zm-196.3-1.1c-24.5-14.5-32.9-45.8-18.4-70.3 14.5-24.6 45.7-32.9 70.3-18.4 24.5 14.5 32.9 45.7 18.4 70.3-14 24.5-45.8 32.9-70.3 18.4zm208.6-206.4c8.9-9.5 22.3-15.1 36.3-15.1 28.4 0 51.3 22.9 51.3 51.3 0 28.5-22.9 51.3-51.3 51.3-14 0-26.8-5.5-36.3-15-25.7-25.7-47.4-25.7-73.1 0-8.9 9.5-22.3 15-36.2 15-28.5 0-51.3-22.8-51.3-51.3 0-28.4 22.8-51.3 51.3-51.3 13.9 0 26.8 5.6 36.2 15.1 25.7 25.6 47.4 25.6 73.1 0z"/>
	<g id="Layer">
		<path id="Layer" fill-rule="evenodd" class="s1" d="m595.7 64c33.4 0 57.4 11.7 80.3 28.5l-24.6 36.2c-12.2-8.9-32.3-20-54.1-20-54.1 0-72.5 37.9-72.5 70.2 0 40.2 28.5 69.2 68.6 69.2 13.4 0 29-2.8 40.8-8.4v-31.8h-56.4v-39.6h102.1v90.4c-32.9 29.6-66.4 34-86.5 34-68 0-118.2-51.8-118.2-114.9 0.6-61.3 46.3-113.8 120.5-113.8zm270.5 70.9v154.5h-45.2v-22.9c-11.2 16.2-25.7 25.7-48.5 25.7-46.9 0-75.3-36.3-75.3-81.5 0-43.5 26.2-79.7 74.2-79.7 20.6 0 39 10 49.6 24.5v-20.6zm-84.2 121.6c21.7 0 40.1-14 40.1-42.4 0-28.5-17.2-46.3-41.8-46.3-24.5 0-38.5 20.1-38.5 43.5 0.6 25.1 15.6 45.2 40.2 45.2zm251.5-49.7v83.1h-44.6v-83.6c0-21.2-6.1-38-25.6-38-19.6 0-25.7 17.3-25.7 38v83.1h-45.2v-154.5h45.2v21.2c10-15.6 24.5-24.6 41.3-24.6 23.4 0 39.6 10.1 47.4 25.7 11.7-22.9 34-25.7 49.1-25.7 43.5 0 55.2 34.6 55.2 73.7v84.2h-45.2v-83.1c0-21.2-6.1-38-25.7-38-20 0.6-26.2 17.9-26.2 38.5zm265.5 0v83.1h-44.6v-83.6c0-21.2-6.1-38-25.7-38-19.5 0-25.6 17.3-25.6 38v83.1h-45.2v-154.5h45.2v21.2c10-15.6 24.5-24.6 41.3-24.6 23.4 0 39.6 10.1 47.4 25.7 11.7-22.9 34-25.7 49-25.7 43.5 0 55.3 34.6 55.3 73.7v84.2h-45.2v-83.1c0-21.2-6.2-38-25.7-38-20.1 0.6-26.2 17.9-26.2 38.5zm282.2-71.9v154.5h-45.1v-22.9c-11.2 16.2-25.7 25.7-48.6 25.7-46.8 0-75.3-36.3-75.3-81.5 0-43.5 26.3-79.7 74.2-79.7 20.7 0 39.1 10 49.7 24.5v-20.6zm-84.3 121.6c21.8 0 40.2-14 40.2-42.4 0-28.5-17.3-46.3-41.8-46.3-24.6 0-38.5 20.1-38.5 43.5 0.5 25.1 15.6 45.2 40.1 45.2z"/>
	</g>
</svg>